<svg xmlns="http://www.w3.org/2000/svg" width="738.47" height="641.834"><style>.B{font-family:ArialMT,Arial}.C{fill:#6d7278}.D{fill:#fff}.E{fill:#191919}.F{font-family:Arial-BoldMT,Arial}.G{font-weight:700}.H{font-size:6px}.I{font-size:7px}.K{font-size:4.922px}.L{fill:#0e5fe3}.M{fill:#f5f6f7}.N{font-size:8px}.O{fill:#4f4f4f}.P{fill:#e8f0fc}.Q{font-size:5.3px}.R{font-size:5.5px}.S{fill:#c6cbce}.T{font-size:5.742px}.U{text-decoration:underline}.X{flood-opacity:.161}</style><defs><clipPath id="B"><rect width="618.47" height="386.85" rx="10" x="372.774" y="1547.166" class="M"/></clipPath><clipPath id="D"><rect width="196" height="415" rx="10" class="D"/></clipPath><clipPath id="E"><path d="M1191.779 639.658a2.821 2.821 0 103.172 2.8h.906a3.777 3.777 0 11-4.078-3.7v-1.346l2.719 1.779-2.719 1.779z" transform="translate(-1188.305 -637.419)" clip-rule="evenodd" fill="none"/></clipPath><filter id="A" x="0" y="0" width="738.47" height="506.85" filterUnits="userSpaceOnUse"><feOffset dy="20"/><feGaussianBlur stdDeviation="20" result="A"/><feFlood class="X"/><feComposite operator="in" in2="A"/><feComposite in="SourceGraphic"/></filter><filter id="C" x="33.226" y="106.834" width="316" height="535" filterUnits="userSpaceOnUse"><feOffset dy="20"/><feGaussianBlur stdDeviation="20" result="A"/><feFlood class="X"/><feComposite operator="in" in2="A"/><feComposite in="SourceGraphic"/></filter></defs><g transform="translate(-.004 .004)" filter="url(#A)" class="M"><rect width="618.47" height="386.85" rx="10" transform="translate(60 40)"/></g><g transform="translate(-312.774 -1507.166)" clip-path="url(#B)"><path d="M372.774 1547.166h618.47v386.85h-618.47z" class="M"/><path fill="#58595b" opacity=".6" d="M372.774 1646.576h448.325v287.44H372.774z"/><text class="B E N"><tspan y="1576.99" x="411.059">Letter to Sally Penfold</tspan></text><text class="B C H"><tspan y="1566.701" x="411.059">Morrison &amp; Sons</tspan></text><path d="M391.566 1568.178h6.57v.82h-6.57z" class="C"/><path fill="#ddd" d="M404.723 1560.226h.41v16.141h-.41z"/><path d="M394.159 1571.675l-3.185-3.088 3.187-3.044.568.591-2.553 2.476 2.553 2.477z" class="C"/><rect width="139.443" height="28.52" rx="4.039" x="840.914" y="1726.875" class="D"/><text font-size="6.562" class="B E"><tspan y="1743.476" x="870.543">James Stevenson</tspan></text><text class="C F G K"><tspan y="1722.331" x="849.523">Share by</tspan></text><circle cx="855.309" cy="1741.135" r="6.736" class="P"/><path d="M855.31 1748.282a7.15 7.15 0 01-7.146-7.146 7.15 7.15 0 017.145-7.146 7.15 7.15 0 017.147 7.145 7.155 7.155 0 01-7.146 7.147zm0-13.473a6.33 6.33 0 00-6.326 6.326 6.33 6.33 0 006.326 6.326 6.33 6.33 0 006.326-6.326 6.333 6.333 0 00-6.326-6.326z" class="S"/><text class="F G L T"><tspan x="851.797" y="1743.082">JS</tspan></text><rect width="139.443" height="28.52" rx="4.039" x="840.914" y="1772.989" class="D"/><text font-size="6.562" class="B E"><tspan y="1789.589" x="870.543">Sally Penfold</tspan></text><text class="C F G K"><tspan y="1768.445" x="849.523">Signer</tspan></text><circle cx="855.309" cy="1787.249" r="6.736" class="P"/><path d="M855.31 1794.396a7.146 7.146 0 11-.004-14.293 7.146 7.146 0 01.004 14.293zm0-13.473a6.33 6.33 0 00-6.326 6.326 6.33 6.33 0 006.326 6.326 6.33 6.33 0 006.326-6.326 6.333 6.333 0 00-6.326-6.326z" class="S"/><text class="F G L T"><tspan x="851.479" y="1789.196">SP</tspan></text><rect width="139.443" height="32.81" rx="4.332" x="840.914" y="1858.088" class="D"/><text class="B C K"><tspan y="1883.964" x="849.523">Now</tspan></text><text class="B E H"><tspan y="1870.268" x="849.523">You requested eSignatures on this file</tspan></text><rect width="139.443" height="32.81" rx="4.332" x="840.914" y="1819.229" class="D"/><text class="B C K"><tspan y="1845.106" x="849.523">2 hours ago</tspan></text><text class="B E H"><tspan y="1831.408" x="849.523">James shared this file with you</tspan></text><circle cx="963.972" cy="1835.634" r="6.736" class="P"/><path d="M963.972 1842.78a7.146 7.146 0 117.146-7.146 7.153 7.153 0 01-7.146 7.146zm0-13.472a6.33 6.33 0 00-6.326 6.326 6.33 6.33 0 006.326 6.326 6.33 6.33 0 006.326-6.326 6.333 6.333 0 00-6.326-6.326z" class="S"/><text class="F G L T"><tspan x="960.46" y="1837.581">JS</tspan></text><text class="C F G K"><tspan y="1814.559" x="849.523">Activity</tspan></text><rect width="139.443" height="97.823" rx="4.332" x="840.914" y="1612.401" class="D"/><text class="B E H"><tspan y="1637.211" x="849.523">Letter to Mrs. Sally Penfold</tspan></text><text class="B C K"><tspan y="1628.688" x="849.523">Name</tspan></text><text class="B E Q"><tspan y="1664.036" x="849.523">PDF</tspan></text><text class="B C R"><tspan y="1656.513" x="849.523">Type</tspan></text><text class="B E Q"><tspan y="1664.036" x="916.347">831 KB</tspan></text><text class="B C R"><tspan y="1656.513" x="916.347">Size</tspan></text><text class="B E Q"><tspan y="1690.861" x="849.523">August 16 2021</tspan></text><text class="B C R"><tspan y="1683.338" x="849.523">Created</tspan></text><text class="B E Q"><tspan y="1690.861" x="916.347">August 16 2021</tspan></text><text class="B C R"><tspan y="1683.338" x="916.347">Modified</tspan></text><text class="C F G H"><tspan x="858.276" y="1602.408">COMMENTS</tspan></text><text class="F G H L"><tspan x="932.885" y="1602.408">DETAILS</tspan></text><path fill="#ddd" d="M840.913 1606.236h139.443v.41H840.913z"/><g class="L"><path d="M911.041 1606.104h69.315v.82h-69.315z"/><path d="M943.464 1606.554l2.235 2.235 2.235-2.235z"/></g><path d="M969.606 1565.649h4.4v6.327h-4.4a.91.91 0 01-.908-.908v-4.511a.91.91 0 01.908-.908z" class="P"/><g class="L"><path d="M978.714 1575.344h-11.52a1.85 1.85 0 01-1.848-1.847v-9.369a1.85 1.85 0 011.848-1.848h11.52a1.85 1.85 0 011.848 1.848v9.369a1.85 1.85 0 01-1.848 1.847zm-11.52-12.653a1.44 1.44 0 00-1.438 1.437v9.369a1.44 1.44 0 001.438 1.437h11.52a1.44 1.44 0 001.438-1.437v-9.369a1.44 1.44 0 00-1.438-1.437zm9.133 9.49h-6.748a1.087 1.087 0 01-1.086-1.087v-4.564c.001-.6.486-1.085 1.086-1.086h6.748c.6 0 1.086.486 1.087 1.086v4.564a1.09 1.09 0 01-1.087 1.087zm-6.748-6.327a.68.68 0 00-.676.676v4.564c0 .374.302.676.676.677h6.748a.677.677 0 00.677-.677v-4.564a.677.677 0 00-.677-.676z"/><path d="M973.804 1565.649h.41v6.327h-.41zm1.285.781h.82v1.817h-.82zm0 2.948h.82v1.817h-.82z"/></g><rect width="37.619" height="12.654" rx="1.643" x="918.771" y="1562.485" class="D"/><path d="M954.747 1575.344h-34.334a1.85 1.85 0 01-1.847-1.847v-9.369a1.85 1.85 0 011.847-1.848h34.334a1.85 1.85 0 011.848 1.848v9.369a1.85 1.85 0 01-1.848 1.847zm-34.334-12.653a1.44 1.44 0 00-1.437 1.437v9.369a1.44 1.44 0 001.437 1.437h34.334a1.44 1.44 0 001.438-1.437v-9.369a1.44 1.44 0 00-1.438-1.437z" fill="#ddd"/><text class="B C H"><tspan x="924.238" y="1571.444">Download</tspan></text><path d="M960.323 1560.226h.41v16.141h-.41zm-579.178 26.839h599.212v.41H381.145z" fill="#ddd"/><rect width="265.49" height="275.519" rx="1.726" fill="#b3b3b3" x="470.112" y="1658.606" opacity=".25"/><rect width="257.298" height="281.12" rx="1.729" x="478.195" y="1652.896" class="D"/><path d="M733.764 1934.125h-253.84a1.84 1.84 0 01-1.838-1.838v-277.662a1.84 1.84 0 011.838-1.839h253.84a1.84 1.84 0 011.838 1.839v277.662a1.84 1.84 0 01-1.838 1.838zm-253.84-281.12a1.62 1.62 0 00-1.619 1.62v277.662a1.62 1.62 0 001.619 1.619h253.84a1.62 1.62 0 001.619-1.619v-277.662a1.62 1.62 0 00-1.619-1.62z" fill="#b3b3b3"/><path d="M372.774 1587.27h448.325v45.661H372.774z" class="D"/><path fill="#1560b3" d="M372.774 1632.931h448.325v13.645H372.774z"/><text font-size="10" class="B E"><tspan x="420.403" y="1600.578">Request for Signature</tspan></text><text font-size="4" class="B C"><tspan x="421" y="1629">Kindly review and sign this document.</tspan></text><text transform="translate(435.213 1638.081)" font-size="3.523" class="B D"><tspan x="0" y="0">Please read the </tspan><tspan y="0" class="U">Electronic Record and Signature Disclosure</tspan><tspan y="0">.</tspan></text><text font-size="3.523" class="B D"><tspan x="442.527" y="1643.773">I agree to use electronic records and signatures.</tspan></text><text font-size="5" class="E F G"><tspan x="443.521" y="1613.418">LawConnect Administrator</tspan></text><text font-size="5" class="B C"><tspan x="443.521" y="1620.454">Sign2Exchange</tspan></text><g fill="#1863df"><path d="M428.994 1621.959a7.64 7.64 0 01-6.689-11.485 7.64 7.64 0 016.689-3.794v3.673a3.97 3.97 0 00-3.971 3.967 3.97 3.97 0 003.966 3.971 3.97 3.97 0 003.972-3.966v-.005h3.673a7.63 7.63 0 01-7.629 7.639z"/><circle cx="434.063" cy="1609.251" r="2.571"/></g><path d="M428.613 1642.486h-8.4v-5.87h8.4l3.011 2.935z" fill="#fdc649"/><path d="M435.214 1640.033h4.718v4.718h-4.718z" class="D"/><text font-size="3.691" letter-spacing=".078em" class="B D"><tspan x="739.216" y="1640.971">MORE OPTIONS</tspan></text><text transform="translate(735 1605.001)" font-size="12" letter-spacing="-.057em" class="F G"><tspan x="0" y="0">DocuSign</tspan><tspan font-size="4" y="0">®</tspan></text><path d="M775.887 1639.049l-1.219 1.81-1.219-1.81z" class="D"/><rect width="32.103" height="9.075" rx=".441" fill="#557d90" x="698.13" y="1635.081"/><text fill="#1b528d" font-size="3.691" letter-spacing=".078em" class="F G"><tspan x="703.534" y="1640.971">CONTINUE</tspan></text><text class="B I O"><tspan x="494.452" y="1784.579">Mrs. Sally Penfold</tspan><tspan y="1793.579" x="494.452">15 Williams Road</tspan><tspan y="1802.579" x="494.452">Chatham, NJ 07928</tspan><tspan x="668.25" y="1746.773">August 16, 2021</tspan><tspan x="666.705" y="1755.773">Ref: NO/0024/19</tspan><tspan x="494.453" y="1861.876">Please find enclosed documentation in regards to your divorce.</tspan><tspan x="494.452" y="1841.903">Dear Sally,</tspan></text><path d="M560.114 1697.329h99.489m-99.489 23.877h99.489" stroke="#ddd"/><text letter-spacing="-.02em" class="F G I O"><tspan x="588.067" y="1710.625">Morrison &amp; Sons</tspan></text><g fill="#3aa5d9"><rect width="5.306" height="5.306" rx="2" x="575.7" y="1700.645"/><rect width="5.306" height="5.306" rx="2" x="575.7" y="1706.614"/><rect width="5.306" height="5.306" rx="2" x="581.67" y="1700.645"/><rect width="5.306" height="5.306" rx="2" x="569.731" y="1700.645"/><rect width="5.306" height="5.306" rx="2" x="569.731" y="1706.614"/><rect width="5.306" height="5.306" rx="2" x="569.731" y="1712.584"/></g><path fill="#58595b" opacity=".6" d="M372.774 1646.576h448.325v287.436H372.774z"/></g><g transform="translate(-.004 .004)" filter="url(#C)" class="D"><rect width="196" height="415" rx="10" transform="translate(93.23 146.83)"/></g><g transform="translate(93.226 146.834)" clip-path="url(#D)"><path d="M-.126 76.695h195.324v338.774H-.126z" class="M"/><path d="M8.82 114.095h177.218v209.271H8.82z" class="D"/><g class="C"><circle cx="164.106" cy="96.236" r="1.26"/><circle cx="169.576" cy="96.236" r="1.26"/><circle cx="175.046" cy="96.236" r="1.26"/></g><text class="B E I"><tspan x="37.545" y="102.147">Letter to Sally Penfold</tspan></text><text class="B C I"><tspan x="37.545" y="92.557">Morrison &amp; Sons</tspan></text><path d="M8.82 114.095h177.323M30.17 89.107v16.039" stroke="#ddd" stroke-width=".5"/><path d="M11.39 96.663h10.984a.516.516 0 010 1.033H11.493l3.448 3.448a.517.517 0 11-.731.731l-4.382-4.381a.517.517 0 010-.731l4.382-4.381a.515.515 0 11.73.73z" fill="#555"/><path d="M-.126 50.22H195.64v26.475H-.126z" class="D"/><path d="M-.126.033H195.64V50.22H-.126z" class="M"/><rect width="70.427" height="2.452" rx="1.226" x="63.25" y="408.38"/><path d="M-.126 76.695H195.64M-.126 50.22H195.64" stroke="#ddd" stroke-width=".5"/><path d="M5.559 30.185v6.609a6.673 6.673 0 00.614 3.545 4.185 4.185 0 001.74 1.739 6.67 6.67 0 003.545.615h173.108a6.67 6.67 0 003.545-.615 4.177 4.177 0 001.739-1.739 6.66 6.66 0 00.615-3.545v-6.609a6.668 6.668 0 00-.615-3.546 4.18 4.18 0 00-1.739-1.739 6.67 6.67 0 00-3.545-.615H11.458a6.67 6.67 0 00-3.545.615 4.19 4.19 0 00-1.74 1.739 6.68 6.68 0 00-.614 3.546z" fill="#e9eaeb" fill-rule="evenodd"/><g clip-path="url(#E)" transform="translate(178.485 28.887)"><path d="M-2.557-2.557h12.666v13.862H-2.557z"/></g><text fill="#4ebd73" font-family="Helvetica" class="N"><tspan x="65.27" y="35.428">lawconnect.com</tspan></text><text class="E F G I"><tspan x="17.655" y="13.245">2:30</tspan></text><text font-size="5" class="B E"><tspan x="150.994" y="13.408">SOS</tspan></text><path d="M182.387 8.821l-2.207 2.918h1.324l-.834 2.526 2.551-3.311h-1.3z" class="E"/><path d="M180.888 12.187h-1.6l1.932-2.556h-3.481a.744.744 0 00-.745.745v2.214a.746.746 0 00.745.744h2.772zm4.728-2.556h-2.949l-.192.879h1.651l-2.176 2.824h3.666a.744.744 0 00.744-.744v-2.214a.746.746 0 00-.744-.745z" fill="#53d769"/><path d="M187.163 9.989v2.989a2.015 2.015 0 000-2.988z" fill="#969696"/><g class="E"><path d="M165.838 10.592a3.94 3.94 0 015.447 0l-.455.455a4.28 4.28 0 00-4.537 0z"/><path d="M170.03 11.845a4.28 4.28 0 00-2.944 0l-.463-.462a3.817 3.817 0 013.869 0zm-2.577.364a3.82 3.82 0 012.216 0l-1.109 1.107z"/></g><path d="M18.935 60.94H10.29m8.645 2.98H10.29m8.645 2.981H10.29" stroke="#6d7278"/><path fill="#1560b3" d="M8.82 323.365h177.218v76.902H8.82z"/><text transform="translate(17.783 335.305)" class="B D H"><tspan x="0" y="0">Please read the </tspan><tspan y="0" class="U">Electronic Record and Signature</tspan><tspan y="8" x="0" class="U">Disclosure</tspan><tspan y="8">.</tspan></text><text class="B D H"><tspan x="31.234" y="361.29">I agree to use electronic records and signatures.</tspan></text><path d="M27.79 382.13H17.784m10.006 3.45H17.784m10.006 3.449H17.784" stroke="#fff" stroke-width="1.157"/><rect width="61.738" height="17.453" rx=".952" fill="#557d90" x="118.293" y="376.979"/><text fill="#1b528d" letter-spacing=".078em" class="F G I"><tspan x="128.478" y="388.07">CONTINUE</tspan></text><rect width="9.208" height="9.208" rx="2.207" stroke="#bbbdbf" stroke-width=".579" x="17.784" y="355.757" class="D" stroke-miterlimit="10"/><text transform="translate(22.641 146.168)" font-size="17" letter-spacing="-.057em" class="F G"><tspan x="0" y="0">DocuSign</tspan><tspan y="0" class="H">®</tspan></text><text font-size="14" class="F G"><tspan x="22.641" y="180.884">Request for Signature</tspan></text><text class="F G N"><tspan x="58.896" y="202.745">LawConnect Administrator</tspan></text><text class="B C N"><tspan x="58.895" y="213.706">Sign2Exchange</tspan><tspan x="24.269" y="243.851">Kindly review and sign this document.</tspan></text><g fill="#1863df"><path d="M36.811 215.833a10.066 10.066 0 010-20.132v4.839a5.23 5.23 0 00-3.705 8.926 5.23 5.23 0 008.931-3.693v-.006h4.839a10.058 10.058 0 01-10.05 10.066z"/><circle cx="43.489" cy="199.088" r="3.387"/><path d="M61.436 69.118a5.788 5.788 0 110-11.573v2.782a3.006 3.006 0 103 3.009h2.782a5.78 5.78 0 01-5.778 5.787z"/><circle cx="65.274" cy="59.492" r="1.947"/></g><g class="E"><path d="M70.914 67.817v-9.152h1.675v7.776h4.271v1.376zm21.473-6.348h1.584l-2.493 6.348h-1.415l-1.558-4.089-1.519 4.089h-1.4l-2.5-6.348h1.661l1.624 4.413 1.623-4.413h1.168l1.623 4.44zm11.611 6.049a2.785 2.785 0 01-1.136-1.155 3.668 3.668 0 01-.4-1.753 3.63 3.63 0 01.4-1.746 2.79 2.79 0 011.136-1.149 3.82 3.82 0 013.414 0 2.75 2.75 0 011.13 1.149 3.68 3.68 0 01.4 1.746 3.72 3.72 0 01-.4 1.753 2.74 2.74 0 01-1.13 1.155 3.82 3.82 0 01-3.414 0zm2.9-1.376a3.02 3.02 0 000-3.057 1.43 1.43 0 00-1.195-.526 1.45 1.45 0 00-1.2.526 2.39 2.39 0 00-.422 1.526 2.41 2.41 0 00.416 1.532 1.44 1.44 0 001.194.52c.462.029.911-.164 1.208-.52zm8.115-4.18a2.95 2.95 0 01.558 1.961v3.894h-1.623v-3.8c.032-.38-.067-.76-.279-1.077a1.075 1.075 0 00-.877-.338 1.48 1.48 0 00-1.123.442 1.64 1.64 0 00-.422 1.182v3.6h-1.623v-6.348h1.583v.947a2.19 2.19 0 01.87-.817 2.614 2.614 0 011.233-.286 2.123 2.123 0 011.703.64z"/><path d="M121.894 61.962a2.95 2.95 0 01.558 1.961v3.894h-1.623v-3.8a1.69 1.69 0 00-.279-1.077 1.075 1.075 0 00-.877-.338 1.48 1.48 0 00-1.123.442 1.64 1.64 0 00-.422 1.182v3.6h-1.623v-6.348h1.584v.947c.209-.348.51-.631.87-.817a2.614 2.614 0 011.233-.286 2.125 2.125 0 011.702.64zm-39.658 0a2.71 2.71 0 00-1.987-.649 5.597 5.597 0 00-2.686.762l.891.89a4.92 4.92 0 01.62-.243 3.5 3.5 0 011.058-.176 1.26 1.26 0 01.928.286 1.3 1.3 0 01.279.935v.3h-.324a10.57 10.57 0 00-2.22.182 2.14 2.14 0 00-1.162.584 1.6 1.6 0 00-.357 1.1 1.8 1.8 0 00.3 1.012 2.06 2.06 0 00.818.715 2.55 2.55 0 001.156.259 2.09 2.09 0 001.1-.286 1.69 1.69 0 00.694-.791v.973h1.545v-3.856a2.73 2.73 0 00-.653-1.997zm-.9 3.233a1.57 1.57 0 01-.409 1.123c-.273.291-.659.45-1.058.436a1.025 1.025 0 01-.727-.266.89.89 0 01-.285-.682.69.69 0 01.208-.532 1.3 1.3 0 01.688-.273 8.96 8.96 0 011.35-.078h.234zm20.197.716a4.19 4.19 0 01-.838.433 3.69 3.69 0 01-1.3.227 2.52 2.52 0 01-2.044-.857 4.6 4.6 0 010-4.946 2.52 2.52 0 012.044-.857 3.71 3.71 0 011.3.227 4.14 4.14 0 01.839.435l.943-.943a3.87 3.87 0 00-1.366-.8 5.255 5.255 0 00-1.74-.285 4.65 4.65 0 00-2.356.578 3.86 3.86 0 00-1.545 1.636 5.956 5.956 0 000 4.953 3.85 3.85 0 001.545 1.642 4.65 4.65 0 002.356.578 5.23 5.23 0 001.74-.286 3.855 3.855 0 001.364-.795zm26.557.361a3.01 3.01 0 01-1.517.4 1.82 1.82 0 01-1.3-.429 1.97 1.97 0 01-.532-1.311h4.323v-.454a3.35 3.35 0 00-.759-2.324 2.65 2.65 0 00-2.071-.844 3.11 3.11 0 00-1.6.415 2.824 2.824 0 00-1.1 1.169 3.69 3.69 0 00-.389 1.726 3.22 3.22 0 00.9 2.415 3.366 3.366 0 002.46.883 4.27 4.27 0 001.344-.221 3.43 3.43 0 001.1-.572zm-2.86-3.4a1.38 1.38 0 011.045-.415c.381-.021.752.129 1.012.409a1.85 1.85 0 01.389 1.2h-2.93a2.02 2.02 0 01.483-1.195zm8.555 3.608a2.527 2.527 0 01-.889.168 1.66 1.66 0 01-1.311-.526 2.657 2.657 0 010-3.012 1.66 1.66 0 011.311-.526c.304.002.605.059.889.168.152.057.298.127.438.209l.868-.869a2.8 2.8 0 00-1.019-.567 4.15 4.15 0 00-1.318-.214 3.55 3.55 0 00-1.739.415 2.87 2.87 0 00-1.162 1.175 3.975 3.975 0 00-.02 3.473 2.71 2.71 0 001.123 1.142 3.55 3.55 0 001.733.4 4.28 4.28 0 001.35-.214 2.937 2.937 0 001.041-.57l-.862-.862a2.88 2.88 0 01-.433.21zm6.007.195l-.476.025q-1.182 0-1.182-1.272v-2.74h1.657v-1.22h-1.657v-1.9h-1.623v1.9h-1.221v1.22h1.221v2.766a2.444 2.444 0 00.636 1.837 2.74 2.74 0 001.973.617q.306 0 .671-.035z"/></g></g></svg>