<svg fill="none" viewBox="0 0 712 100" xmlns="http://www.w3.org/2000/svg"><path d="m50.036 98.785a48.785 48.785 0 0 1 0-97.57v23.455a25.348 25.348 0 1 0 25.332 25.36v-.03h23.457a48.746 48.746 0 0 1 -48.71 48.785z" fill="#0e5fe3"/><path d="m82.404 34.05c9.067 0 16.417-7.35 16.417-16.418 0-9.067-7.35-16.417-16.417-16.417s-16.417 7.35-16.417 16.417 7.35 16.418 16.417 16.418z" fill="#0e5fe3"/><g fill="#191919"><path d="m129.95 87.815v-77.153h14.12v65.563h36.01v11.59zm181.03-53.524h13.354l-21.023 53.524h-11.92l-13.136-34.477-12.805 34.477h-11.808l-21.125-53.525h14.01l13.668 37.232 13.683-37.215h9.851l13.682 37.434zm97.884 51.007a23.455 23.455 0 0 1 -9.576-9.742c-2.265-4.231-3.396-9.157-3.394-14.778.002-5.62 1.134-10.526 3.394-14.718a23.512 23.512 0 0 1 9.576-9.69c4.124-2.262 8.922-3.392 14.394-3.39 5.473.002 10.27 1.133 14.391 3.39a23.198 23.198 0 0 1 9.523 9.69c2.225 4.194 3.338 9.1 3.338 14.718s-1.113 10.544-3.338 14.778a23.14 23.14 0 0 1 -9.523 9.742c-4.121 2.263-8.918 3.393-14.391 3.39-5.472-.001-10.27-1.132-14.394-3.39zm24.464-11.59c2.333-2.918 3.5-7.222 3.5-12.913 0-5.616-1.167-9.903-3.5-12.861-2.334-2.958-5.69-4.435-10.07-4.43-4.377 0-7.752 1.476-10.126 4.43-2.373 2.954-3.558 7.24-3.556 12.86 0 5.692 1.168 9.996 3.503 12.915 2.336 2.918 5.693 4.377 10.07 4.377 4.446-.009 7.839-1.472 10.179-4.39v.013zm68.407-35.258c3.137 3.65 4.705 9.16 4.705 16.53v32.834h-13.682v-32.069c0-4.159-.783-7.188-2.351-9.086-1.567-1.898-4.031-2.847-7.39-2.844-3.941 0-7.096 1.24-9.467 3.721-2.371 2.482-3.557 5.802-3.557 9.96v30.318h-13.682v-53.523h13.355v7.99a18.504 18.504 0 0 1 7.331-6.894c3.066-1.607 6.533-2.41 10.4-2.407 6.415 0 11.195 1.824 14.338 5.47zm58.007 0c3.134 3.65 4.704 9.16 4.708 16.53v32.834h-13.682v-32.069c0-4.159-.785-7.188-2.354-9.086-1.57-1.898-4.032-2.847-7.388-2.844-3.94 0-7.096 1.24-9.466 3.721-2.371 2.482-3.557 5.802-3.557 9.96v30.318h-13.682v-53.523h13.351v7.99a18.513 18.513 0 0 1 7.335-6.894c3.066-1.607 6.532-2.41 10.397-2.407 6.422 0 11.201 1.824 14.338 5.47zm-334.351 0c-3.649-3.646-9.231-5.47-16.745-5.47a42.878 42.878 0 0 0 -12.04 1.858c-4.126 1.212-7.658 2.733-10.596 4.563l7.503 7.506a43.882 43.882 0 0 1 5.232-2.053 29.4 29.4 0 0 1 8.914-1.477c3.649 0 6.257.803 7.824 2.408 1.568 1.605 2.353 4.232 2.355 7.88v2.517h-2.735c-7.947 0-14.186.511-18.716 1.533-4.529 1.022-7.795 2.664-9.798 4.924-2.006 2.263-3.01 5.364-3.01 9.305a15.203 15.203 0 0 0 2.517 8.536 17.286 17.286 0 0 0 6.897 6.02 21.46 21.46 0 0 0 9.742 2.189c3.503 0 6.586-.803 9.248-2.407a14.28 14.28 0 0 0 5.855-6.676v8.209h13.026v-32.517c0-7.583-1.824-13.199-5.473-16.848zm-7.553 27.255c0 3.868-1.149 7.023-3.447 9.467s-5.272 3.666-8.921 3.666c-2.481 0-4.524-.747-6.129-2.242a7.5 7.5 0 0 1 -2.407-5.735c0-1.894.584-3.39 1.751-4.487 1.168-1.097 3.102-1.863 5.802-2.298 2.7-.441 6.493-.662 11.381-.662h1.986z"/><path d="m388.08 71.742a35.076 35.076 0 0 1 -7.057 3.642 31.118 31.118 0 0 1 -10.947 1.917c-7.443 0-13.19-2.408-17.238-7.225-4.049-4.817-6.074-11.785-6.076-20.904 0-9.05 2.025-15.983 6.076-20.798 4.051-4.814 9.797-7.223 17.238-7.225a31.186 31.186 0 0 1 10.947 1.917 35.033 35.033 0 0 1 7.073 3.663l7.947-7.947c-3.121-2.87-6.961-5.108-11.52-6.712a44.142 44.142 0 0 0 -14.655-2.404c-7.59 0-14.212 1.623-19.868 4.87a32.581 32.581 0 0 0 -13.023 13.792c-3.027 5.947-4.541 12.9-4.543 20.86-.002 7.961 1.512 14.929 4.543 20.905a32.498 32.498 0 0 0 13.023 13.834c5.656 3.247 12.278 4.871 19.868 4.871a44.147 44.147 0 0 0 14.665-2.407c4.55-1.59 8.385-3.823 11.507-6.699zm223.9 3.039a25.28 25.28 0 0 1 -12.788 3.401c-4.744 0-8.386-1.204-10.927-3.612-2.541-2.409-4.038-6.093-4.49-11.053h36.424v-3.832c0-8.317-2.134-14.848-6.401-19.592s-10.081-7.115-17.44-7.113c-5.038 0-9.543 1.167-13.517 3.5a23.903 23.903 0 0 0 -9.252 9.851c-2.19 4.232-3.283 9.088-3.281 14.57 0 8.609 2.538 15.396 7.616 20.36 5.077 4.965 11.991 7.445 20.741 7.441a35.899 35.899 0 0 0 11.328-1.86c3.696-1.22 6.773-2.826 9.232-4.822zm-24.116-28.668c2.225-2.334 5.162-3.502 8.811-3.504s6.495 1.148 8.537 3.45c2.044 2.299 3.139 5.673 3.285 10.123h-24.722c.499-4.377 1.862-7.734 4.089-10.07zm72.136 30.427a21.107 21.107 0 0 1 -7.497 1.424c-4.744 0-8.429-1.478-11.056-4.434s-3.94-7.17-3.94-12.643c0-5.543 1.313-9.792 3.94-12.748s6.312-4.433 11.056-4.43c2.565.017 5.105.5 7.497 1.423a24.761 24.761 0 0 1 3.682 1.752l7.321-7.321c-2.176-1.987-5.046-3.579-8.609-4.775a34.868 34.868 0 0 0 -11.109-1.805c-5.545 0-10.434 1.167-14.666 3.5a24.177 24.177 0 0 0 -9.795 9.908c-2.3 4.267-3.45 9.174-3.45 14.722 0 5.547 1.095 10.403 3.285 14.57a22.946 22.946 0 0 0 9.467 9.631c4.121 2.263 8.992 3.394 14.612 3.391a36.036 36.036 0 0 0 11.381-1.804c3.545-1.168 6.47-2.769 8.775-4.802l-7.285-7.268a24.628 24.628 0 0 1 -3.609 1.709zm50.636 1.649c-1.384.139-2.721.21-4.01.212-6.643 0-9.963-3.575-9.961-10.726v-23.095h13.971v-10.289h-13.971v-15.98h-13.682v15.98h-10.288v10.289h10.288v23.302c0 6.859 1.788 12.02 5.365 15.487 3.576 3.465 9.121 5.198 16.635 5.198 1.719 0 3.606-.096 5.653-.294z"/></g></svg>